<svg xmlns="http://www.w3.org/2000/svg" viewBox="0 0 80 80">
  <defs>
    <linearGradient id="a" x1="10" y1="12" x2="70" y2="70" gradientUnits="userSpaceOnUse">
      <stop stop-color="#1DB7FF"/>
      <stop offset=".48" stop-color="#3152FF"/>
      <stop offset="1" stop-color="#7B5CFF"/>
    </linearGradient>
    <linearGradient id="b" x1="18" y1="14" x2="60" y2="66" gradientUnits="userSpaceOnUse">
      <stop stop-color="#062C66"/>
      <stop offset="1" stop-color="#031A3D"/>
    </linearGradient>
  </defs>
  <rect width="80" height="80" rx="22" fill="#F8FAFF"/>
  <path d="M20 22h19.5c9.9 0 17.2 6.7 17.2 15.8 0 8.7-6.7 15.1-16.1 15.7l-5.7.3v-12h4.7c3.3 0 5.5-1.7 5.5-4.4 0-2.8-2.2-4.5-5.5-4.5H32.1V60H20V22Z" fill="url(#b)"/>
  <path d="M32 20h28v12H44.4v27.7H32V20Z" fill="url(#a)"/>
  <path d="M44.4 32H60L44.4 47.9V32Z" fill="#17C9FF" opacity=".72"/>
  <path d="M20 22h12.1v10.9H20V22Z" fill="#7B5CFF"/>
  <circle cx="61.5" cy="20.5" r="5.5" fill="#22D3A6"/>
</svg>
